<svg version="1.1" id="Слой_1" xmlns="http://www.w3.org/2000/svg" x="0" y="0" viewBox="0 0 151.5 70" xml:space="preserve"><style>.st2{fill:#ca262e}</style><path class="st2" d="M100.7 55.1c.1-.1.2-.2.2-.3v-9.4c0-.5 0-.5.5-.5h19.1c.2 0 .3-.1.3-.3v-9.4c0-.1-.1-.2-.2-.2h-8.9c-.2 0-.5 0-.7.1 0-.1 0-.2.1-.2h9.5c.3 0 .4 0 .4.3v9c0 .8 0 .7.7.7h8.7c.2 0 .4-.1.6.1h-10c-.2-.1-.4-.1-.6-.1h-9.1c-.1 0-.2.1-.2.2v9.3c0 .6 0 .5-.5.5H102c-.9 0-.9-.1-.9.9v8.4c0 .2.1.5-.1.7-.2-.3-.1-.6-.1-.9-.2-2.9-.2-5.9-.2-8.9zm10.1-30.2c-.2.1-.5 0-.8 0h-8.4c-.8 0-.8-.1-.8.8v8.5c0 .9 0 .8-.8.8h-8.7c-.6 0-.6.1-.6-.6v-8.6c0-.9.1-.9-.9-.9h-8.4c-.9 0-.8 0-.8-.8v-9.3h9.7c.3 0 .3.1.3.3V24c0 .9-.1.8.8.8h9.2c3.6.1 6.9.1 10.2.1zm-10.1 5v-4.4c0-.4 0-.5-.5-.5h-8.9c-.2 0-.3.1-.3.3v9.2c0 .1.1.2.2.2h8.8c.6 0 .6 0 .6-.6.1-1.3.1-2.7.1-4.2zm-50 25.3c-.1-.1-.2-.1-.3-.1H41c-.4 0-.4 0-.4-.4v-9.4c0-.1-.1-.2-.2-.2h-9.2c-.2 0-.4 0-.6.1h-10c0-.1.1-.1.1-.1h18.9c.3 0 .6 0 .9-.1.1.1.2.1.3.1H50c.6 0 .6 0 .6.6v8.8c0 .2-.1.5.2.7 0-.1-.1 0-.1 0zM10.5 25c0-.1.1-.1.1-.1h9.5c.3 0 .3-.1.3-.3v-9.5c0-.1.1-.2.2-.2h9.1c.2 0 .5.1.7-.1.1 0 .2 0 .2.1-.1 0-.2.1-.2.2v9.7c-.3.2-.5.1-.8.1h-8.5c-.3 0-.6-.1-.8.1h-9.8zm20 29.9c0 .1-.1.1-.1.1h-9.2c-.6 0-.6 0-.6.6v8.7c0 .9.1.8-.8.8H11c-.5 0-.5 0-.5-.6v-9.3c0-.2.1-.3.3-.3h9.1c.3 0 .5.1.7-.1 3.2.1 6.6.1 9.9.1zm100.7.2h9.3c.6 0 .6 0 .6.6v8.9c0 .6 0 .6-.6.6h-9.1c-.3 0-.3-.1-.3-.3v-9.6c0-.1 0-.2.1-.2z"/><path class="st2" d="M50.7 55.2l.2-.2h9.9v9.9c-.1 0-.1.1-.1.2H51l-.1-.1c-.1-.2-.1-.3-.1-.5v-9c-.1 0-.1-.2-.1-.3zM30.8 14.9c0-.1-.1-.1-.2-.1V5.5c0-.2 0-.4.1-.6H40c.2 0 .5 0 .7.1v9.7l-.1.1h-9.2c-.3.1-.5.1-.6.1zm9.8 29.9c-.3.2-.6.2-.9.2h-9.1v-9.7c0-.1 0-.2.1-.2h9.1c.3 0 .6 0 .9.1v9.3c-.1 0-.1.2-.1.3zm40.2-29.9h-9.9c0-.2 0-.3-.2-.4V5c.2-.2.4-.1.7-.1h8.7c.3 0 .5.1.7.3v9.7zM141 25v9.3c0 .7 0 .6-.6.6h-9c-.4 0-.4 0-.4-.4v-9.6c3.4.1 6.7.1 10 .1zm-20 20.1h10v9.8h-10v-9.5c-.1-.1 0-.2 0-.3zM10.5 25h10v9.9h-10c-.1-.2-.1-.4-.1-.6v-8.7c0-.2 0-.4.1-.6zm60.2 20V35h9.9v9.6c0 .3-.1.4-.4.4h-9.5zm-40.2 9.9h-10V45h10v9.1c.1.4.1.6 0 .8zm40.2-9.8v9.8h-10V45c3.4.1 6.7.1 10 .1zm10.1 9.8v-9.8h10v9.8h-10zM40.6 24.7V15h10v9.8h-9.9l-.1-.1zm20.1.2v-9.8h10v9.7l-.1.1h-9.9zm50.1 0h-9.9V15h10v9.8l-.1.1zM131 15v9.8h-9.9l-.1-.1V15h10zM60.7 25v9.9h-9.9c0-.2 0-.3-.1-.5v-9.3h.9c3-.1 6-.1 9.1-.1zm40 30.1v9.1c0 .3 0 .6.1.9l-.1.1H91V55.1h9.7zm10.3-20c.2-.1.4-.1.7-.1h8.9c.1 0 .2.1.2.2v9.4c0 .2-.1.3-.3.3H111v-9.8zm0-20.3V5c.3-.2.5-.1.8-.1h8.2c.8 0 .8 0 .8.8v9.2h-9.7l-.1-.1z"/><path class="st2" d="M90.8 45.1h-10c-.2-.1-.4-.1-.6-.1h-8.9c-.2 0-.4 0-.5.1h-10c0-.1.1-.1.1-.1h19.3c.3 0 .4-.1.4-.4V35c.1 0 .2 0 .2.1v9.1c0 .8-.1.8.7.8h9.1c.2 0 .2 0 .2.1zm30-30.2V5.7c0-.8 0-.8-.8-.8h-8.2c-.3 0-.6 0-.8.1 0-.1 0-.2.1-.2h9.6c.1 0 .2.1.2.2v9.6c0 .2.1.2.3.3h9.6c.1 0 .1.1.1.1h-10s0-.1-.1-.1zM91 55.1v10.1c-.1 0-.2 0-.2-.1V56c0-1 .1-.9-.9-.9h-9c-.1 0-.1-.1-.1-.1h10c.1 0 .2 0 .2.1zM60.7 25h-10c-.3-.1-.5-.1-.8-.1h-8.4c-.2 0-.5 0-.7-.1h29.8c-.2.1-.5.1-.7.1h-8.5c-.2 0-.5 0-.7.1zm60.4-.1h19.7c.1 0 .1.1.1.1h-10c-.3-.1-.5-.1-.8-.1h-8.4c-.1 0-.4.1-.6 0zM70.7 15h-10c0-.1 0-.1.1-.1h9.4c.4 0 .4 0 .5-.4.2.1.2.3.2.4 0 0-.1.1-.2.1zm10.1-9.8c-.2-.2-.4-.3-.7-.3h-8.7c-.2 0-.5-.1-.7.1v-.2h9.8c.3 0 .3.1.3.4zm30.2 9.6l.1.1c-.1 0-.1.1-.2.1h-10c0-.1 0-.1.1-.1h9.2c.3 0 .6.1.8-.1zm10 40.1h10c.1 0 .1.1.2.1l-.2.2c-.1-.1-.2-.1-.3-.1h-9.6c-.1 0-.1-.1-.1-.2zM40.6 5.1c-.2-.1-.4-.1-.7-.1h-9.3c0-.1.1-.1.1-.1h9.8c.1 0 .1.1.1.2zm20.1 49.8h10c0 .1-.1.1-.1.1H60.5c.1 0 .1 0 .2-.1zM40.6 35.1c-.3-.1-.6-.1-.9-.1h-9.1c.1-.1.3-.1.4-.1h9.4c.2.1.2.2.2.2zm-30.1-.3h10s0 .1-.1.1h-9.5c-.1.1-.3.2-.4-.1zM50.7 15h-10v-.1h9.9s0 .1.1.1zm0 19.9h9.9s0 .1-.1.1h-9.3c-.2 0-.4.1-.5-.1zm29.9.1h-9.9c.1-.1.3-.1.4-.1h9c.3 0 .4.1.5.1zM60.5 65.1c0-.1 0-.2.1-.2.1.1.1.2-.1.2zm50.3-40.2l.1-.1c.1 0 0 .1-.1.1zm-40.2 0l.1-.1c.1 0 0 .1-.1.1zm-30-.2l.1.1c-.1.1-.1 0-.1-.1z"/><path class="st2" d="M70.8 35c0 .1 0 .1 0 0-.1.1-.1.1 0 0-.1.1 0 0 0 0zM40.5 14.9l.1-.1v.1h-.1zm80.5 9.8l.1.1c-.1.1-.1 0-.1-.1zM50.7 65.1l.1.1s-.1 0-.1-.1zm50 0l.1-.1c.1.2 0 .2-.1.1zm0-35.2v4.3c0 .6 0 .6-.6.6h-8.8c-.1 0-.2-.1-.2-.2v-9.2c0-.2.1-.3.3-.3h8.9c.4 0 .5 0 .5.5-.1 1.4-.1 2.9-.1 4.3z"/></svg>